# xmcd
#
# Track frame offsets: 
#        150
#        13163
#        28924
#        47489
#        65107
#        82169
#        100943
#        117071
#        130715
#        148415
#        166050
#        191466
#        207504
#        224622
#        238977
#        257226
#        279958
#        298433
#        316685
#
# Disc length: 4548 seconds
#
# Revision: 2
# Processed by: cddbd v1.5.2PL0 Copyright (c) Steve Scherf et al.
# Submitted via: ExactAudioCopy v0.99pb5
#
DISCID=2e11c213
DTITLE=Various Artist - Metal for the Masses [CD1]
DYEAR=2006
DGENRE=METAL
TTITLE0=Lacuna Coil/Closer(Radio Edit)
TTITLE1=Diecast/Fade Away (heavy edit)
TTITLE2=The Haunted/The Flood
TTITLE3=Into Eternity/Severe Emotional Distress
TTITLE4=In This Moment/Prayers
TTITLE5=Brand New Sin/Old
TTITLE6=Strapping Young Lad/Wrong side
TTITLE7=Napalm Death/When All is Said and Done
TTITLE8=Heaven Shall Burn/Stay the Course
TTITLE9=Celtic Frost/Ground
TTITLE10=Satryicon/The Pentagram Burns
TTITLE11=Behemoth/DemiGod
TTITLE12=Fear My Thoughts/Blankness
TTITLE13=Dream Evil/Fire Battle in Metal
TTITLE14=Firewind/Falling to Pieces
TTITLE15=Mercenary/Soul Decision
TTITLE16=Poisionblack/Rush
TTITLE17=God Forbid/Chains of Humanity
TTITLE18=Arch Enemy/My Apocalypse
EXTD=
EXTT0=
EXTT1=
EXTT2=
EXTT3=
EXTT4=
EXTT5=
EXTT6=
EXTT7=
EXTT8=
EXTT9=
EXTT10=
EXTT11=
EXTT12=
EXTT13=
EXTT14=
EXTT15=
EXTT16=
EXTT17=
EXTT18=
PLAYORDER=
